<?xml version="1.0" standalone="no"?>
<!DOCTYPE svg PUBLIC "-//W3C//DTD SVG 20010904//EN"
 "http://www.w3.org/TR/2001/REC-SVG-20010904/DTD/svg10.dtd">
<svg version="1.0" xmlns="http://www.w3.org/2000/svg"
 width="512.000000pt" height="512.000000pt" viewBox="0 0 512.000000 512.000000"
 preserveAspectRatio="xMidYMid meet">

<g transform="translate(0.000000,512.000000) scale(0.100000,-0.100000)"
fill="#000000" stroke="none">
<path d="M3255 4164 c-248 -23 -407 -92 -538 -234 -74 -80 -129 -186 -157
-302 -18 -76 -20 -119 -20 -487 0 -392 1 -406 21 -449 13 -26 38 -54 62 -70
l40 -27 391 -5 c215 -3 392 -7 393 -8 51 -51 57 -89 18 -128 l-24 -24 -867 2
-866 3 -19 24 c-26 31 -25 83 2 107 20 18 45 19 371 24 l350 5 19 24 c27 33
24 77 -6 107 l-25 25 -363 -3 -364 -3 -49 -30 c-92 -57 -137 -180 -104 -281
16 -48 79 -116 128 -138 l38 -17 31 -587 c24 -446 36 -598 48 -632 33 -93 111
-172 207 -208 63 -25 1088 -31 1178 -8 72 19 123 49 174 106 79 88 82 101 117
632 l23 338 -24 25 c-43 46 -121 25 -134 -37 -3 -13 -16 -191 -30 -396 -29
-424 -33 -440 -107 -489 l-43 -28 -525 -3 c-356 -2 -538 0 -563 8 -46 13 -93
52 -115 94 -16 31 -24 149 -65 934 l-13 242 793 0 c577 0 806 3 840 12 60 15
142 94 160 154 34 115 -15 229 -123 287 -38 21 -55 22 -425 27 l-385 5 0 410
c0 405 0 411 24 479 44 127 131 228 252 291 55 28 192 65 244 65 l38 0 -7 -52
c-4 -29 -21 -84 -37 -123 -51 -122 -132 -204 -259 -263 -97 -45 -110 -56 -110
-103 0 -50 39 -83 88 -75 49 8 169 70 234 121 153 120 249 321 252 527 1 77
-2 90 -20 109 -23 22 -73 30 -149 23z"/>
<path d="M1767 3600 c-28 -3 -56 -14 -69 -27 -44 -45 -33 -191 24 -313 44 -92
166 -211 273 -267 105 -54 217 -93 265 -93 30 0 43 6 59 26 47 60 18 103 -96
143 -221 78 -338 176 -379 319 -9 30 -13 56 -10 59 11 12 140 -18 195 -45 54
-26 109 -74 182 -160 41 -48 71 -54 113 -21 56 44 25 123 -94 233 -123 113
-297 168 -463 146z"/>
<path d="M3345 2165 c-45 -44 -25 -117 35 -130 59 -13 109 45 89 103 -18 53
-84 68 -124 27z"/>
</g>
</svg>
